<svg xmlns="http://www.w3.org/2000/svg" viewBox="0 0 512 512" width="512" height="512">
  <defs>
    <linearGradient id="bg" x1="0" y1="0" x2="1" y2="1">
      <stop offset="0" stop-color="#3A5285"/>
      <stop offset="1" stop-color="#1B2B4D"/>
    </linearGradient>
  </defs>

  <rect width="512" height="512" rx="120" fill="url(#bg)"/>

  <!-- Left page -->
  <path d="M110 168 Q170 138 252 164 V340 Q170 314 110 344 Z"
        fill="#F5F2EA"/>
  <!-- Right page -->
  <path d="M258 164 Q340 138 402 168 V344 Q340 314 258 340 Z"
        fill="#F5F2EA"/>

  <!-- Center spine shadow -->
  <path d="M252 164 V340" stroke="#D8D2C0" stroke-width="3"/>
  <path d="M258 164 V340" stroke="#D8D2C0" stroke-width="3"/>

  <!-- Bookmark ribbon hanging from top of right page -->
  <path d="M330 172 L330 236 L346 222 L362 236 L362 172 Z"
        fill="#E0B94A" stroke="#B8860B" stroke-width="2" stroke-linejoin="round"/>

  <!-- Subtle page rule lines -->
  <line x1="140" y1="200" x2="230" y2="196" stroke="#C7C0A8" stroke-width="3" stroke-linecap="round"/>
  <line x1="140" y1="224" x2="230" y2="220" stroke="#C7C0A8" stroke-width="3" stroke-linecap="round"/>
  <line x1="140" y1="248" x2="200" y2="244" stroke="#C7C0A8" stroke-width="3" stroke-linecap="round"/>

  <line x1="282" y1="196" x2="372" y2="200" stroke="#C7C0A8" stroke-width="3" stroke-linecap="round"/>
  <line x1="282" y1="220" x2="372" y2="224" stroke="#C7C0A8" stroke-width="3" stroke-linecap="round"/>
  <line x1="282" y1="244" x2="340" y2="248" stroke="#C7C0A8" stroke-width="3" stroke-linecap="round"/>
</svg>
